<svg width="1067" height="255" viewBox="0 0 1067 255" fill="none" xmlns="http://www.w3.org/2000/svg">
<path opacity="0.82" d="M0 0V254.404H266.751V0H0ZM198.935 14.3267C198.935 12.306 200.471 10.6536 202.344 10.6536H212.495C214.367 10.6536 215.903 12.3036 215.903 14.3267V31.8783C215.903 33.899 214.367 35.5515 212.495 35.5515H202.344C200.471 35.5515 198.935 33.9015 198.935 31.8783V14.3267ZM260.368 51.2738V205.735C260.368 211.356 256.139 215.913 250.924 215.913H15.8293C10.6142 215.913 6.38509 211.356 6.38509 205.735V51.2762C6.38509 45.655 10.6142 41.0975 15.8293 41.0975H250.924C256.139 41.0975 260.368 45.655 260.368 51.2762V51.2738ZM165.325 10.6536H175.471C177.346 10.6536 178.879 12.3036 178.879 14.3267V31.8783C178.879 33.899 177.349 35.5515 175.471 35.5515H165.325C163.45 35.5515 161.917 33.9015 161.917 31.8783V14.3267C161.917 12.306 163.447 10.6536 165.325 10.6536ZM124.895 14.3267C124.895 12.306 126.431 10.6536 128.303 10.6536H138.45C140.325 10.6536 141.86 12.3036 141.86 14.3267V31.8783C141.86 33.899 140.325 35.5515 138.45 35.5515H128.303C126.431 35.5515 124.895 33.9015 124.895 31.8783V14.3267ZM101.431 10.6536C103.306 10.6536 104.839 12.3036 104.839 14.3267V31.8783C104.839 33.899 103.308 35.5515 101.431 35.5515H91.2843C89.4095 35.5515 87.8738 33.9015 87.8738 31.8783V14.3267C87.8738 12.306 89.4095 10.6536 91.2843 10.6536H101.431ZM50.8548 14.3267C50.8548 12.306 52.3856 10.6536 54.2628 10.6536H64.4096C66.2844 10.6536 67.8201 12.3036 67.8201 14.3267V31.8783C67.8201 33.899 66.2844 35.5515 64.4096 35.5515H54.2628C52.388 35.5515 50.8548 33.9015 50.8548 31.8783V14.3267ZM13.831 14.3267C13.831 12.306 15.3667 10.6536 17.2415 10.6536H27.3882C29.263 10.6536 30.7963 12.3036 30.7963 14.3267V31.8783C30.7963 33.899 29.2655 35.5515 27.3882 35.5515H17.2415C15.3667 35.5515 13.831 33.9015 13.831 31.8783V14.3267ZM17.2415 246.355C15.3667 246.355 13.831 244.705 13.831 242.682V225.13C13.831 223.11 15.3667 221.457 17.2415 221.457H27.3882C29.263 221.457 30.7963 223.107 30.7963 225.13V242.682C30.7963 244.703 29.2655 246.355 27.3882 246.355H17.2415ZM67.8176 242.682C67.8176 244.703 66.282 246.355 64.4072 246.355H54.2605C52.3857 246.355 50.8524 244.705 50.8524 242.682V225.13C50.8524 223.11 52.3832 221.457 54.2605 221.457H64.4072C66.282 221.457 67.8176 223.107 67.8176 225.13V242.682ZM104.837 242.682C104.837 244.703 103.306 246.355 101.429 246.355H91.2818C89.407 246.355 87.8713 244.705 87.8713 242.682V225.13C87.8713 223.11 89.407 221.457 91.2818 221.457H101.429C103.303 221.457 104.837 223.107 104.837 225.13V242.682ZM141.86 242.682C141.86 244.703 140.325 246.355 138.45 246.355H128.303C126.431 246.355 124.895 244.705 124.895 242.682V225.13C124.895 223.11 126.431 221.457 128.303 221.457H138.45C140.325 221.457 141.86 223.107 141.86 225.13V242.682ZM165.325 246.355C163.45 246.355 161.917 244.705 161.917 242.682V225.13C161.917 223.11 163.447 221.457 165.325 221.457H175.471C177.346 221.457 178.879 223.107 178.879 225.13V242.682C178.879 244.703 177.349 246.355 175.471 246.355H165.325ZM212.493 246.355H202.341C200.469 246.355 198.933 244.705 198.933 242.682V225.13C198.933 223.11 200.469 221.457 202.341 221.457H212.493C214.365 221.457 215.901 223.107 215.901 225.13V242.682C215.901 244.703 214.365 246.355 212.493 246.355ZM252.922 242.682C252.922 244.703 251.386 246.355 249.512 246.355H239.365C237.49 246.355 235.957 244.705 235.957 242.682V225.13C235.957 223.11 237.488 221.457 239.365 221.457H249.512C251.386 221.457 252.922 223.107 252.922 225.13V242.682ZM252.922 31.8759C252.922 33.8966 251.386 35.549 249.512 35.549H239.365C237.49 35.549 235.957 33.899 235.957 31.8759V14.3267C235.957 12.306 237.488 10.6536 239.365 10.6536H249.512C251.386 10.6536 252.922 12.3036 252.922 14.3267V31.8783V31.8759Z" fill="#1E1E1E"/>
<path opacity="0.82" d="M13.831 17.6145H0V26.0947H13.831V17.6145Z" fill="#050505"/>
<path opacity="0.82" d="M50.852 17.6145H30.7935V26.0947H50.852V17.6145Z" fill="#050505"/>
<path opacity="0.82" d="M87.8715 17.6145H67.8179V26.0947H87.8715V17.6145Z" fill="#050505"/>
<path opacity="0.82" d="M124.895 17.6145H104.836V26.0947H124.895V17.6145Z" fill="#050505"/>
<path opacity="0.82" d="M161.916 17.6145H141.858V26.0947H161.916V17.6145Z" fill="#050505"/>
<path opacity="0.82" d="M198.935 17.6145H178.877V26.0947H198.935V17.6145Z" fill="#050505"/>
<path opacity="0.82" d="M235.957 17.6145H215.898V26.0947H235.957V17.6145Z" fill="#050505"/>
<path opacity="0.82" d="M266.748 17.6145H252.922V26.0947H266.748V17.6145Z" fill="#050505"/>
<path opacity="0.82" d="M33.5451 0H26.2324V7.39232H33.5451V0Z" fill="#050505"/>
<path opacity="0.82" d="M13.8309 0H8.88232V7.39232H13.8309V0Z" fill="#050505"/>
<path opacity="0.82" d="M4.95114 7.39232V6.95862V0H0V6.95862V7.39232V14.3509H4.95114V7.39232Z" fill="#050505"/>
<path opacity="0.82" d="M40.7077 0H36.1685V7.39232H40.7077V0Z" fill="#050505"/>
<path opacity="0.82" d="M47.8704 0H43.3311V7.39232H47.8704V0Z" fill="#050505"/>
<path opacity="0.82" d="M220.438 0H215.898V7.39232H220.438V0Z" fill="#050505"/>
<path opacity="0.82" d="M233.881 0H222.63V7.39232H233.881V0Z" fill="#050505"/>
<path opacity="0.82" d="M131.798 0H127.259V7.39232H131.798V0Z" fill="#050505"/>
<path opacity="0.82" d="M139.734 0H135.194V7.39232H139.734V0Z" fill="#050505"/>
<path opacity="0.82" d="M262.636 6.95862V0H258.096V6.95862H255.19V0H250.65V7.39232H254.465V14.3509H259.005V7.39232H262.212V14.3509H266.751V6.95862H262.636Z" fill="#050505"/>
<path opacity="0.82" d="M147.097 14.3509H150.426H151.637H159.572V7.39232H163.54V0H159V6.95862H155.604V0H151.065V6.95862H150.426H147.669V0H143.13V7.39232H147.097V14.3509Z" fill="#050505"/>
<path opacity="0.82" d="M171.474 0H166.935V7.39232H171.474V0Z" fill="#050505"/>
<path opacity="0.82" d="M179.41 0H174.871V7.39232H179.41V0Z" fill="#050505"/>
<path opacity="0.82" d="M84.3855 0H79.8462V7.39232H84.3855V0Z" fill="#050505"/>
<path opacity="0.82" d="M91.5485 0H87.0093V7.39232H91.5485V0Z" fill="#050505"/>
<path opacity="0.82" d="M98.6242 0H94.085V7.39232H98.6242V0Z" fill="#050505"/>
<path opacity="0.82" d="M13.831 228.309H0V236.789H13.831V228.309Z" fill="#050505"/>
<path opacity="0.82" d="M50.852 228.309H30.7935V236.789H50.852V228.309Z" fill="#050505"/>
<path opacity="0.82" d="M87.8715 228.309H67.8179V236.789H87.8715V228.309Z" fill="#050505"/>
<path opacity="0.82" d="M124.895 228.309H104.836V236.789H124.895V228.309Z" fill="#050505"/>
<path opacity="0.82" d="M161.916 228.309H141.858V236.789H161.916V228.309Z" fill="#050505"/>
<path opacity="0.82" d="M198.935 228.309H178.877V236.789H198.935V228.309Z" fill="#050505"/>
<path opacity="0.82" d="M235.957 228.309H215.898V236.789H235.957V228.309Z" fill="#050505"/>
<path opacity="0.82" d="M266.748 228.309H252.922V236.789H266.748V228.309Z" fill="#050505"/>
<path opacity="0.82" d="M33.5451 247.009H26.2324V254.401H33.5451V247.009Z" fill="#050505"/>
<path opacity="0.82" d="M13.8309 247.009H8.88232V254.401H13.8309V247.009Z" fill="#050505"/>
<path opacity="0.82" d="M0 247.009V247.443V254.401H4.95114V247.443V247.009V240.051H0V247.009Z" fill="#050505"/>
<path opacity="0.82" d="M40.7077 247.009H36.1685V254.401H40.7077V247.009Z" fill="#050505"/>
<path opacity="0.82" d="M47.8704 247.009H43.3311V254.401H47.8704V247.009Z" fill="#050505"/>
<path opacity="0.82" d="M220.438 247.009H215.898V254.401H220.438V247.009Z" fill="#050505"/>
<path opacity="0.82" d="M233.881 247.009H222.63V254.401H233.881V247.009Z" fill="#050505"/>
<path opacity="0.82" d="M131.798 247.009H127.259V254.401H131.798V247.009Z" fill="#050505"/>
<path opacity="0.82" d="M139.734 247.009H135.194V254.401H139.734V247.009Z" fill="#050505"/>
<path opacity="0.82" d="M262.212 247.009H259.005V240.051H254.465V247.009H250.65V254.401H255.19V247.443H258.096V254.401H262.636V247.443H266.751V240.051H262.212V247.009Z" fill="#050505"/>
<path opacity="0.82" d="M159.572 240.051H151.637H150.426H147.097V247.009H143.13V254.401H147.669V247.443H150.426H151.065V254.401H155.604V247.443H159V254.401H163.54V247.009H159.572V240.051Z" fill="#050505"/>
<path opacity="0.82" d="M171.474 247.009H166.935V254.401H171.474V247.009Z" fill="#050505"/>
<path opacity="0.82" d="M179.41 247.009H174.871V254.401H179.41V247.009Z" fill="#050505"/>
<path opacity="0.82" d="M84.3855 247.009H79.8462V254.401H84.3855V247.009Z" fill="#050505"/>
<path opacity="0.82" d="M91.5485 247.009H87.0093V254.401H91.5485V247.009Z" fill="#050505"/>
<path opacity="0.82" d="M98.6242 247.009H94.085V254.401H98.6242V247.009Z" fill="#050505"/>
<path opacity="0.82" d="M266.749 0V254.404H533.499V0H266.749ZM465.684 14.3267C465.684 12.306 467.22 10.6536 469.092 10.6536H479.244C481.116 10.6536 482.652 12.3036 482.652 14.3267V31.8783C482.652 33.899 481.116 35.5515 479.244 35.5515H469.092C467.22 35.5515 465.684 33.9015 465.684 31.8783V14.3267ZM527.117 51.2738V205.735C527.117 211.356 522.887 215.913 517.672 215.913H282.578C277.363 215.913 273.134 211.356 273.134 205.735V51.2762C273.134 45.655 277.363 41.0975 282.578 41.0975H517.672C522.887 41.0975 527.117 45.655 527.117 51.2762V51.2738ZM432.073 10.6536H442.22C444.095 10.6536 445.628 12.3036 445.628 14.3267V31.8783C445.628 33.899 444.097 35.5515 442.22 35.5515H432.073C430.198 35.5515 428.665 33.9015 428.665 31.8783V14.3267C428.665 12.306 430.196 10.6536 432.073 10.6536ZM391.644 14.3267C391.644 12.306 393.179 10.6536 395.052 10.6536H405.198C407.073 10.6536 408.609 12.3036 408.609 14.3267V31.8783C408.609 33.899 407.073 35.5515 405.198 35.5515H395.052C393.179 35.5515 391.644 33.9015 391.644 31.8783V14.3267ZM368.179 10.6536C370.054 10.6536 371.588 12.3036 371.588 14.3267V31.8783C371.588 33.899 370.057 35.5515 368.179 35.5515H358.033C356.158 35.5515 354.622 33.9015 354.622 31.8783V14.3267C354.622 12.306 356.158 10.6536 358.033 10.6536H368.179ZM317.603 14.3267C317.603 12.306 319.134 10.6536 321.011 10.6536H331.158C333.033 10.6536 334.569 12.3036 334.569 14.3267V31.8783C334.569 33.899 333.033 35.5515 331.158 35.5515H321.011C319.137 35.5515 317.603 33.9015 317.603 31.8783V14.3267ZM280.579 14.3267C280.579 12.306 282.115 10.6536 283.99 10.6536H294.137C296.012 10.6536 297.545 12.3036 297.545 14.3267V31.8783C297.545 33.899 296.014 35.5515 294.137 35.5515H283.99C282.115 35.5515 280.579 33.9015 280.579 31.8783V14.3267ZM283.99 246.355C282.115 246.355 280.579 244.705 280.579 242.682V225.13C280.579 223.11 282.115 221.457 283.99 221.457H294.137C296.012 221.457 297.545 223.107 297.545 225.13V242.682C297.545 244.703 296.014 246.355 294.137 246.355H283.99ZM334.566 242.682C334.566 244.703 333.031 246.355 331.156 246.355H321.009C319.134 246.355 317.601 244.705 317.601 242.682V225.13C317.601 223.11 319.132 221.457 321.009 221.457H331.156C333.031 221.457 334.566 223.107 334.566 225.13V242.682ZM371.585 242.682C371.585 244.703 370.054 246.355 368.177 246.355H358.03C356.156 246.355 354.62 244.705 354.62 242.682V225.13C354.62 223.11 356.156 221.457 358.03 221.457H368.177C370.052 221.457 371.585 223.107 371.585 225.13V242.682ZM408.609 242.682C408.609 244.703 407.073 246.355 405.198 246.355H395.052C393.179 246.355 391.644 244.705 391.644 242.682V225.13C391.644 223.11 393.179 221.457 395.052 221.457H405.198C407.073 221.457 408.609 223.107 408.609 225.13V242.682ZM432.073 246.355C430.198 246.355 428.665 244.705 428.665 242.682V225.13C428.665 223.11 430.196 221.457 432.073 221.457H442.22C444.095 221.457 445.628 223.107 445.628 225.13V242.682C445.628 244.703 444.097 246.355 442.22 246.355H432.073ZM479.241 246.355H469.09C467.217 246.355 465.682 244.705 465.682 242.682V225.13C465.682 223.11 467.217 221.457 469.09 221.457H479.241C481.114 221.457 482.649 223.107 482.649 225.13V242.682C482.649 244.703 481.114 246.355 479.241 246.355ZM519.671 242.682C519.671 244.703 518.135 246.355 516.26 246.355H506.113C504.239 246.355 502.705 244.705 502.705 242.682V225.13C502.705 223.11 504.236 221.457 506.113 221.457H516.26C518.135 221.457 519.671 223.107 519.671 225.13V242.682ZM519.671 31.8759C519.671 33.8966 518.135 35.549 516.26 35.549H506.113C504.239 35.549 502.705 33.899 502.705 31.8759V14.3267C502.705 12.306 504.236 10.6536 506.113 10.6536H516.26C518.135 10.6536 519.671 12.3036 519.671 14.3267V31.8783V31.8759Z" fill="#1E1E1E"/>
<path opacity="0.82" d="M280.579 17.6145H266.749V26.0947H280.579V17.6145Z" fill="#050505"/>
<path opacity="0.82" d="M317.603 17.6145H297.545V26.0947H317.603V17.6145Z" fill="#050505"/>
<path opacity="0.82" d="M354.62 17.6145H334.566V26.0947H354.62V17.6145Z" fill="#050505"/>
<path opacity="0.82" d="M391.643 17.6145H371.585V26.0947H391.643V17.6145Z" fill="#050505"/>
<path opacity="0.82" d="M428.668 17.6145H408.609V26.0947H428.668V17.6145Z" fill="#050505"/>
<path opacity="0.82" d="M465.684 17.6145H445.625V26.0947H465.684V17.6145Z" fill="#050505"/>
<path opacity="0.82" d="M502.708 17.6145H482.649V26.0947H502.708V17.6145Z" fill="#050505"/>
<path opacity="0.82" d="M533.499 17.6145H519.673V26.0947H533.499V17.6145Z" fill="#050505"/>
<path opacity="0.82" d="M300.297 0H292.984V7.39232H300.297V0Z" fill="#050505"/>
<path opacity="0.82" d="M280.582 0H275.633V7.39232H280.582V0Z" fill="#050505"/>
<path opacity="0.82" d="M271.7 7.39232V6.95862V0H266.751V6.95862V7.39232V14.3509H271.7V7.39232Z" fill="#050505"/>
<path opacity="0.82" d="M307.459 0H302.919V7.39232H307.459V0Z" fill="#050505"/>
<path opacity="0.82" d="M314.619 0H310.08V7.39232H314.619V0Z" fill="#050505"/>
<path opacity="0.82" d="M487.189 0H482.649V7.39232H487.189V0Z" fill="#050505"/>
<path opacity="0.82" d="M500.632 0H489.38V7.39232H500.632V0Z" fill="#050505"/>
<path opacity="0.82" d="M398.547 0H394.007V7.39232H398.547V0Z" fill="#050505"/>
<path opacity="0.82" d="M406.482 0H401.943V7.39232H406.482V0Z" fill="#050505"/>
<path opacity="0.82" d="M529.386 6.95862V0H524.847V6.95862H521.94V0H517.401V7.39232H521.213V14.3509H525.753V7.39232H528.96V14.3509H533.499V6.95862H529.386Z" fill="#050505"/>
<path opacity="0.82" d="M413.846 14.3509H417.177H418.385H426.32V7.39232H430.291V0H425.749V6.95862H422.353V0H417.814V6.95862H417.177H414.418V0H409.878V7.39232H413.846V14.3509Z" fill="#050505"/>
<path opacity="0.82" d="M438.226 0H433.687V7.39232H438.226V0Z" fill="#050505"/>
<path opacity="0.82" d="M446.16 0H441.621V7.39232H446.16V0Z" fill="#050505"/>
<path opacity="0.82" d="M351.137 0H346.598V7.39232H351.137V0Z" fill="#050505"/>
<path opacity="0.82" d="M358.299 0H353.76V7.39232H358.299V0Z" fill="#050505"/>
<path opacity="0.82" d="M365.375 0H360.835V7.39232H365.375V0Z" fill="#050505"/>
<path opacity="0.82" d="M280.579 228.309H266.749V236.789H280.579V228.309Z" fill="#050505"/>
<path opacity="0.82" d="M317.603 228.309H297.545V236.789H317.603V228.309Z" fill="#050505"/>
<path opacity="0.82" d="M354.62 228.309H334.566V236.789H354.62V228.309Z" fill="#050505"/>
<path opacity="0.82" d="M391.643 228.309H371.585V236.789H391.643V228.309Z" fill="#050505"/>
<path opacity="0.82" d="M428.668 228.309H408.609V236.789H428.668V228.309Z" fill="#050505"/>
<path opacity="0.82" d="M465.684 228.309H445.625V236.789H465.684V228.309Z" fill="#050505"/>
<path opacity="0.82" d="M502.708 228.309H482.649V236.789H502.708V228.309Z" fill="#050505"/>
<path opacity="0.82" d="M533.499 228.309H519.673V236.789H533.499V228.309Z" fill="#050505"/>
<path opacity="0.82" d="M300.297 247.009H292.984V254.401H300.297V247.009Z" fill="#050505"/>
<path opacity="0.82" d="M280.582 247.009H275.633V254.401H280.582V247.009Z" fill="#050505"/>
<path opacity="0.82" d="M266.75 247.009V247.443V254.401H271.699V247.443V247.009V240.051H266.75V247.009Z" fill="#050505"/>
<path opacity="0.82" d="M307.459 247.009H302.919V254.401H307.459V247.009Z" fill="#050505"/>
<path opacity="0.82" d="M314.619 247.009H310.08V254.401H314.619V247.009Z" fill="#050505"/>
<path opacity="0.82" d="M487.189 247.009H482.649V254.401H487.189V247.009Z" fill="#050505"/>
<path opacity="0.82" d="M500.632 247.009H489.38V254.401H500.632V247.009Z" fill="#050505"/>
<path opacity="0.82" d="M398.547 247.009H394.007V254.401H398.547V247.009Z" fill="#050505"/>
<path opacity="0.82" d="M406.482 247.009H401.943V254.401H406.482V247.009Z" fill="#050505"/>
<path opacity="0.82" d="M528.96 247.009H525.753V240.051H521.213V247.009H517.401V254.401H521.94V247.443H524.847V254.401H529.386V247.443H533.499V240.051H528.96V247.009Z" fill="#050505"/>
<path opacity="0.82" d="M426.32 240.051H418.385H417.177H413.846V247.009H409.878V254.401H414.418V247.443H417.177H417.814V254.401H422.353V247.443H425.749V254.401H430.291V247.009H426.32V240.051Z" fill="#050505"/>
<path opacity="0.82" d="M438.226 247.009H433.687V254.401H438.226V247.009Z" fill="#050505"/>
<path opacity="0.82" d="M446.16 247.009H441.621V254.401H446.16V247.009Z" fill="#050505"/>
<path opacity="0.82" d="M351.137 247.009H346.598V254.401H351.137V247.009Z" fill="#050505"/>
<path opacity="0.82" d="M358.299 247.009H353.76V254.401H358.299V247.009Z" fill="#050505"/>
<path opacity="0.82" d="M365.375 247.009H360.835V254.401H365.375V247.009Z" fill="#050505"/>
<path opacity="0.82" d="M533.499 0V254.404H800.249V0H533.499ZM732.434 14.3267C732.434 12.306 733.97 10.6536 735.842 10.6536H745.994C747.866 10.6536 749.402 12.3036 749.402 14.3267V31.8783C749.402 33.899 747.866 35.5515 745.994 35.5515H735.842C733.97 35.5515 732.434 33.9015 732.434 31.8783V14.3267ZM793.867 51.2738V205.735C793.867 211.356 789.637 215.913 784.422 215.913H549.328C544.113 215.913 539.884 211.356 539.884 205.735V51.2762C539.884 45.655 544.113 41.0975 549.328 41.0975H784.422C789.637 41.0975 793.867 45.655 793.867 51.2762V51.2738ZM698.823 10.6536H708.97C710.845 10.6536 712.378 12.3036 712.378 14.3267V31.8783C712.378 33.899 710.847 35.5515 708.97 35.5515H698.823C696.948 35.5515 695.415 33.9015 695.415 31.8783V14.3267C695.415 12.306 696.946 10.6536 698.823 10.6536ZM658.394 14.3267C658.394 12.306 659.929 10.6536 661.802 10.6536H671.948C673.823 10.6536 675.359 12.3036 675.359 14.3267V31.8783C675.359 33.899 673.823 35.5515 671.948 35.5515H661.802C659.929 35.5515 658.394 33.9015 658.394 31.8783V14.3267ZM634.929 10.6536C636.804 10.6536 638.338 12.3036 638.338 14.3267V31.8783C638.338 33.899 636.807 35.5515 634.929 35.5515H624.783C622.908 35.5515 621.372 33.9015 621.372 31.8783V14.3267C621.372 12.306 622.908 10.6536 624.783 10.6536H634.929ZM584.353 14.3267C584.353 12.306 585.884 10.6536 587.761 10.6536H597.908C599.783 10.6536 601.319 12.3036 601.319 14.3267V31.8783C601.319 33.899 599.783 35.5515 597.908 35.5515H587.761C585.887 35.5515 584.353 33.9015 584.353 31.8783V14.3267ZM547.329 14.3267C547.329 12.306 548.865 10.6536 550.74 10.6536H560.887C562.761 10.6536 564.295 12.3036 564.295 14.3267V31.8783C564.295 33.899 562.764 35.5515 560.887 35.5515H550.74C548.865 35.5515 547.329 33.9015 547.329 31.8783V14.3267ZM550.74 246.355C548.865 246.355 547.329 244.705 547.329 242.682V225.13C547.329 223.11 548.865 221.457 550.74 221.457H560.887C562.761 221.457 564.295 223.107 564.295 225.13V242.682C564.295 244.703 562.764 246.355 560.887 246.355H550.74ZM601.316 242.682C601.316 244.703 599.78 246.355 597.906 246.355H587.759C585.884 246.355 584.351 244.705 584.351 242.682V225.13C584.351 223.11 585.882 221.457 587.759 221.457H597.906C599.78 221.457 601.316 223.107 601.316 225.13V242.682ZM638.335 242.682C638.335 244.703 636.804 246.355 634.927 246.355H624.78C622.906 246.355 621.37 244.705 621.37 242.682V225.13C621.37 223.11 622.906 221.457 624.78 221.457H634.927C636.802 221.457 638.335 223.107 638.335 225.13V242.682ZM675.359 242.682C675.359 244.703 673.823 246.355 671.948 246.355H661.802C659.929 246.355 658.394 244.705 658.394 242.682V225.13C658.394 223.11 659.929 221.457 661.802 221.457H671.948C673.823 221.457 675.359 223.107 675.359 225.13V242.682ZM698.823 246.355C696.948 246.355 695.415 244.705 695.415 242.682V225.13C695.415 223.11 696.946 221.457 698.823 221.457H708.97C710.845 221.457 712.378 223.107 712.378 225.13V242.682C712.378 244.703 710.847 246.355 708.97 246.355H698.823ZM745.991 246.355H735.84C733.967 246.355 732.431 244.705 732.431 242.682V225.13C732.431 223.11 733.967 221.457 735.84 221.457H745.991C747.864 221.457 749.399 223.107 749.399 225.13V242.682C749.399 244.703 747.864 246.355 745.991 246.355ZM786.421 242.682C786.421 244.703 784.885 246.355 783.01 246.355H772.863C770.989 246.355 769.455 244.705 769.455 242.682V225.13C769.455 223.11 770.986 221.457 772.863 221.457H783.01C784.885 221.457 786.421 223.107 786.421 225.13V242.682ZM786.421 31.8759C786.421 33.8966 784.885 35.549 783.01 35.549H772.863C770.989 35.549 769.455 33.899 769.455 31.8759V14.3267C769.455 12.306 770.986 10.6536 772.863 10.6536H783.01C784.885 10.6536 786.421 12.3036 786.421 14.3267V31.8783V31.8759Z" fill="#1E1E1E"/>
<path opacity="0.82" d="M547.329 17.6145H533.499V26.0947H547.329V17.6145Z" fill="#050505"/>
<path opacity="0.82" d="M584.353 17.6145H564.295V26.0947H584.353V17.6145Z" fill="#050505"/>
<path opacity="0.82" d="M621.37 17.6145H601.316V26.0947H621.37V17.6145Z" fill="#050505"/>
<path opacity="0.82" d="M658.393 17.6145H638.335V26.0947H658.393V17.6145Z" fill="#050505"/>
<path opacity="0.82" d="M695.415 17.6145H675.356V26.0947H695.415V17.6145Z" fill="#050505"/>
<path opacity="0.82" d="M732.434 17.6145H712.375V26.0947H732.434V17.6145Z" fill="#050505"/>
<path opacity="0.82" d="M769.458 17.6145H749.399V26.0947H769.458V17.6145Z" fill="#050505"/>
<path opacity="0.82" d="M800.247 17.6145H786.42V26.0947H800.247V17.6145Z" fill="#050505"/>
<path opacity="0.82" d="M567.044 0H559.731V7.39232H567.044V0Z" fill="#050505"/>
<path opacity="0.82" d="M547.33 0H542.381V7.39232H547.33V0Z" fill="#050505"/>
<path opacity="0.82" d="M538.45 7.39232V6.95862V0H533.501V6.95862V7.39232V14.3509H538.45V7.39232Z" fill="#050505"/>
<path opacity="0.82" d="M574.206 0H569.667V7.39232H574.206V0Z" fill="#050505"/>
<path opacity="0.82" d="M581.369 0H576.83V7.39232H581.369V0Z" fill="#050505"/>
<path opacity="0.82" d="M753.939 0H749.399V7.39232H753.939V0Z" fill="#050505"/>
<path opacity="0.82" d="M767.382 0H756.13V7.39232H767.382V0Z" fill="#050505"/>
<path opacity="0.82" d="M665.297 0H660.757V7.39232H665.297V0Z" fill="#050505"/>
<path opacity="0.82" d="M673.232 0H668.693V7.39232H673.232V0Z" fill="#050505"/>
<path opacity="0.82" d="M796.134 6.95862V0H791.595V6.95862H788.688V0H784.149V7.39232H787.964V14.3509H792.503V7.39232H795.71V14.3509H800.249V6.95862H796.134Z" fill="#050505"/>
<path opacity="0.82" d="M680.596 14.3509H683.924H685.135H693.07V7.39232H697.038V0H692.499V6.95862H689.103V0H684.564V6.95862H683.924H681.168V0H676.628V7.39232H680.596V14.3509Z" fill="#050505"/>
<path opacity="0.82" d="M704.973 0H700.434V7.39232H704.973V0Z" fill="#050505"/>
<path opacity="0.82" d="M712.908 0H708.369V7.39232H712.908V0Z" fill="#050505"/>
<path opacity="0.82" d="M617.887 0H613.348V7.39232H617.887V0Z" fill="#050505"/>
<path opacity="0.82" d="M625.047 0H620.508V7.39232H625.047V0Z" fill="#050505"/>
<path opacity="0.82" d="M632.125 0H627.585V7.39232H632.125V0Z" fill="#050505"/>
<path opacity="0.82" d="M547.329 228.309H533.499V236.789H547.329V228.309Z" fill="#050505"/>
<path opacity="0.82" d="M584.353 228.309H564.295V236.789H584.353V228.309Z" fill="#050505"/>
<path opacity="0.82" d="M621.37 228.309H601.316V236.789H621.37V228.309Z" fill="#050505"/>
<path opacity="0.82" d="M658.393 228.309H638.335V236.789H658.393V228.309Z" fill="#050505"/>
<path opacity="0.82" d="M695.415 228.309H675.356V236.789H695.415V228.309Z" fill="#050505"/>
<path opacity="0.82" d="M732.434 228.309H712.375V236.789H732.434V228.309Z" fill="#050505"/>
<path opacity="0.82" d="M769.458 228.309H749.399V236.789H769.458V228.309Z" fill="#050505"/>
<path opacity="0.82" d="M800.247 228.309H786.42V236.789H800.247V228.309Z" fill="#050505"/>
<path opacity="0.82" d="M567.044 247.009H559.731V254.401H567.044V247.009Z" fill="#050505"/>
<path opacity="0.82" d="M547.33 247.009H542.381V254.401H547.33V247.009Z" fill="#050505"/>
<path opacity="0.82" d="M533.5 247.009V247.443V254.401H538.449V247.443V247.009V240.051H533.5V247.009Z" fill="#050505"/>
<path opacity="0.82" d="M574.206 247.009H569.667V254.401H574.206V247.009Z" fill="#050505"/>
<path opacity="0.82" d="M581.369 247.009H576.83V254.401H581.369V247.009Z" fill="#050505"/>
<path opacity="0.82" d="M753.939 247.009H749.399V254.401H753.939V247.009Z" fill="#050505"/>
<path opacity="0.82" d="M767.382 247.009H756.13V254.401H767.382V247.009Z" fill="#050505"/>
<path opacity="0.82" d="M665.297 247.009H660.757V254.401H665.297V247.009Z" fill="#050505"/>
<path opacity="0.82" d="M673.232 247.009H668.693V254.401H673.232V247.009Z" fill="#050505"/>
<path opacity="0.82" d="M795.71 247.009H792.503V240.051H787.964V247.009H784.149V254.401H788.688V247.443H791.595V254.401H796.134V247.443H800.249V240.051H795.71V247.009Z" fill="#050505"/>
<path opacity="0.82" d="M693.07 240.051H685.135H683.924H680.596V247.009H676.628V254.401H681.168V247.443H683.924H684.564V254.401H689.103V247.443H692.499V254.401H697.038V247.009H693.07V240.051Z" fill="#050505"/>
<path opacity="0.82" d="M704.973 247.009H700.434V254.401H704.973V247.009Z" fill="#050505"/>
<path opacity="0.82" d="M712.908 247.009H708.369V254.401H712.908V247.009Z" fill="#050505"/>
<path opacity="0.82" d="M617.887 247.009H613.348V254.401H617.887V247.009Z" fill="#050505"/>
<path opacity="0.82" d="M625.047 247.009H620.508V254.401H625.047V247.009Z" fill="#050505"/>
<path opacity="0.82" d="M632.125 247.009H627.585V254.401H632.125V247.009Z" fill="#050505"/>
<path opacity="0.82" d="M800.247 0V254.404H1067V0H800.247ZM999.183 14.3267C999.183 12.306 1000.72 10.6536 1002.59 10.6536H1012.74C1014.61 10.6536 1016.15 12.3036 1016.15 14.3267V31.8783C1016.15 33.899 1014.61 35.5515 1012.74 35.5515H1002.59C1000.72 35.5515 999.183 33.9015 999.183 31.8783V14.3267ZM1060.62 51.2738V205.735C1060.62 211.356 1056.39 215.913 1051.17 215.913H816.076C810.861 215.913 806.632 211.356 806.632 205.735V51.2762C806.632 45.655 810.861 41.0975 816.076 41.0975H1051.17C1056.39 41.0975 1060.62 45.655 1060.62 51.2762V51.2738ZM965.572 10.6536H975.718C977.593 10.6536 979.126 12.3036 979.126 14.3267V31.8783C979.126 33.899 977.596 35.5515 975.718 35.5515H965.572C963.697 35.5515 962.164 33.9015 962.164 31.8783V14.3267C962.164 12.306 963.694 10.6536 965.572 10.6536ZM925.142 14.3267C925.142 12.306 926.678 10.6536 928.55 10.6536H938.697C940.572 10.6536 942.107 12.3036 942.107 14.3267V31.8783C942.107 33.899 940.572 35.5515 938.697 35.5515H928.55C926.678 35.5515 925.142 33.9015 925.142 31.8783V14.3267ZM901.678 10.6536C903.553 10.6536 905.086 12.3036 905.086 14.3267V31.8783C905.086 33.899 903.555 35.5515 901.678 35.5515H891.531C889.656 35.5515 888.121 33.9015 888.121 31.8783V14.3267C888.121 12.306 889.656 10.6536 891.531 10.6536H901.678ZM851.102 14.3267C851.102 12.306 852.633 10.6536 854.51 10.6536H864.657C866.531 10.6536 868.067 12.3036 868.067 14.3267V31.8783C868.067 33.899 866.531 35.5515 864.657 35.5515H854.51C852.635 35.5515 851.102 33.9015 851.102 31.8783V14.3267ZM814.078 14.3267C814.078 12.306 815.614 10.6536 817.489 10.6536H827.635C829.51 10.6536 831.043 12.3036 831.043 14.3267V31.8783C831.043 33.899 829.512 35.5515 827.635 35.5515H817.489C815.614 35.5515 814.078 33.9015 814.078 31.8783V14.3267ZM817.489 246.355C815.614 246.355 814.078 244.705 814.078 242.682V225.13C814.078 223.11 815.614 221.457 817.489 221.457H827.635C829.51 221.457 831.043 223.107 831.043 225.13V242.682C831.043 244.703 829.512 246.355 827.635 246.355H817.489ZM868.065 242.682C868.065 244.703 866.529 246.355 864.654 246.355H854.507C852.633 246.355 851.099 244.705 851.099 242.682V225.13C851.099 223.11 852.63 221.457 854.507 221.457H864.654C866.529 221.457 868.065 223.107 868.065 225.13V242.682ZM905.084 242.682C905.084 244.703 903.553 246.355 901.676 246.355H891.529C889.654 246.355 888.118 244.705 888.118 242.682V225.13C888.118 223.11 889.654 221.457 891.529 221.457H901.676C903.55 221.457 905.084 223.107 905.084 225.13V242.682ZM942.107 242.682C942.107 244.703 940.572 246.355 938.697 246.355H928.55C926.678 246.355 925.142 244.705 925.142 242.682V225.13C925.142 223.11 926.678 221.457 928.55 221.457H938.697C940.572 221.457 942.107 223.107 942.107 225.13V242.682ZM965.572 246.355C963.697 246.355 962.164 244.705 962.164 242.682V225.13C962.164 223.11 963.694 221.457 965.572 221.457H975.718C977.593 221.457 979.126 223.107 979.126 225.13V242.682C979.126 244.703 977.596 246.355 975.718 246.355H965.572ZM1012.74 246.355H1002.59C1000.72 246.355 999.18 244.705 999.18 242.682V225.13C999.18 223.11 1000.72 221.457 1002.59 221.457H1012.74C1014.61 221.457 1016.15 223.107 1016.15 225.13V242.682C1016.15 244.703 1014.61 246.355 1012.74 246.355ZM1053.17 242.682C1053.17 244.703 1051.63 246.355 1049.76 246.355H1039.61C1037.74 246.355 1036.2 244.705 1036.2 242.682V225.13C1036.2 223.11 1037.73 221.457 1039.61 221.457H1049.76C1051.63 221.457 1053.17 223.107 1053.17 225.13V242.682ZM1053.17 31.8759C1053.17 33.8966 1051.63 35.549 1049.76 35.549H1039.61C1037.74 35.549 1036.2 33.899 1036.2 31.8759V14.3267C1036.2 12.306 1037.73 10.6536 1039.61 10.6536H1049.76C1051.63 10.6536 1053.17 12.3036 1053.17 14.3267V31.8783V31.8759Z" fill="#1E1E1E"/>
<path opacity="0.82" d="M814.078 17.6145H800.247V26.0947H814.078V17.6145Z" fill="#050505"/>
<path opacity="0.82" d="M851.102 17.6145H831.043V26.0947H851.102V17.6145Z" fill="#050505"/>
<path opacity="0.82" d="M888.121 17.6145H868.067V26.0947H888.121V17.6145Z" fill="#050505"/>
<path opacity="0.82" d="M925.142 17.6145H905.083V26.0947H925.142V17.6145Z" fill="#050505"/>
<path opacity="0.82" d="M962.166 17.6145H942.108V26.0947H962.166V17.6145Z" fill="#050505"/>
<path opacity="0.82" d="M999.185 17.6145H979.126V26.0947H999.185V17.6145Z" fill="#050505"/>
<path opacity="0.82" d="M1036.21 17.6145H1016.15V26.0947H1036.21V17.6145Z" fill="#050505"/>
<path opacity="0.82" d="M1067 17.6145H1053.17V26.0947H1067V17.6145Z" fill="#050505"/>
<path opacity="0.82" d="M833.795 0H826.482V7.39232H833.795V0Z" fill="#050505"/>
<path opacity="0.82" d="M814.08 0H809.132V7.39232H814.08V0Z" fill="#050505"/>
<path opacity="0.82" d="M805.198 7.39232V6.95862V0H800.25V6.95862V7.39232V14.3509H805.198V7.39232Z" fill="#050505"/>
<path opacity="0.82" d="M840.957 0H836.418V7.39232H840.957V0Z" fill="#050505"/>
<path opacity="0.82" d="M848.12 0H843.581V7.39232H848.12V0Z" fill="#050505"/>
<path opacity="0.82" d="M1020.69 0H1016.15V7.39232H1020.69V0Z" fill="#050505"/>
<path opacity="0.82" d="M1034.13 0H1022.88V7.39232H1034.13V0Z" fill="#050505"/>
<path opacity="0.82" d="M932.045 0H927.506V7.39232H932.045V0Z" fill="#050505"/>
<path opacity="0.82" d="M939.983 0H935.444V7.39232H939.983V0Z" fill="#050505"/>
<path opacity="0.82" d="M1062.88 6.95862V0H1058.35V6.95862H1055.44V0H1050.9V7.39232H1054.71V14.3509H1059.25V7.39232H1062.46V14.3509H1067V6.95862H1062.88Z" fill="#050505"/>
<path opacity="0.82" d="M947.347 14.3509H950.675H951.886H959.821V7.39232H963.789V0H959.25V6.95862H955.854V0H951.315V6.95862H950.675H947.919V0H943.379V7.39232H947.347V14.3509Z" fill="#050505"/>
<path opacity="0.82" d="M971.724 0H967.185V7.39232H971.724V0Z" fill="#050505"/>
<path opacity="0.82" d="M979.659 0H975.12V7.39232H979.659V0Z" fill="#050505"/>
<path opacity="0.82" d="M884.636 0H880.096V7.39232H884.636V0Z" fill="#050505"/>
<path opacity="0.82" d="M891.798 0H887.258V7.39232H891.798V0Z" fill="#050505"/>
<path opacity="0.82" d="M898.873 0H894.334V7.39232H898.873V0Z" fill="#050505"/>
<path opacity="0.82" d="M814.078 228.309H800.247V236.789H814.078V228.309Z" fill="#050505"/>
<path opacity="0.82" d="M851.102 228.309H831.043V236.789H851.102V228.309Z" fill="#050505"/>
<path opacity="0.82" d="M888.121 228.309H868.067V236.789H888.121V228.309Z" fill="#050505"/>
<path opacity="0.82" d="M925.142 228.309H905.083V236.789H925.142V228.309Z" fill="#050505"/>
<path opacity="0.82" d="M962.166 228.309H942.108V236.789H962.166V228.309Z" fill="#050505"/>
<path opacity="0.82" d="M999.185 228.309H979.126V236.789H999.185V228.309Z" fill="#050505"/>
<path opacity="0.82" d="M1036.21 228.309H1016.15V236.789H1036.21V228.309Z" fill="#050505"/>
<path opacity="0.82" d="M1067 228.309H1053.17V236.789H1067V228.309Z" fill="#050505"/>
<path opacity="0.82" d="M833.795 247.009H826.482V254.401H833.795V247.009Z" fill="#050505"/>
<path opacity="0.82" d="M814.08 247.009H809.132V254.401H814.08V247.009Z" fill="#050505"/>
<path opacity="0.82" d="M800.25 247.009V247.443V254.401H805.198V247.443V247.009V240.051H800.25V247.009Z" fill="#050505"/>
<path opacity="0.82" d="M840.957 247.009H836.418V254.401H840.957V247.009Z" fill="#050505"/>
<path opacity="0.82" d="M848.12 247.009H843.581V254.401H848.12V247.009Z" fill="#050505"/>
<path opacity="0.82" d="M1020.69 247.009H1016.15V254.401H1020.69V247.009Z" fill="#050505"/>
<path opacity="0.82" d="M1034.13 247.009H1022.88V254.401H1034.13V247.009Z" fill="#050505"/>
<path opacity="0.82" d="M932.045 247.009H927.506V254.401H932.045V247.009Z" fill="#050505"/>
<path opacity="0.82" d="M939.983 247.009H935.444V254.401H939.983V247.009Z" fill="#050505"/>
<path opacity="0.82" d="M1062.46 247.009H1059.25V240.051H1054.71V247.009H1050.9V254.401H1055.44V247.443H1058.35V254.401H1062.88V247.443H1067V240.051H1062.46V247.009Z" fill="#050505"/>
<path opacity="0.82" d="M959.821 240.051H951.886H950.675H947.347V247.009H943.379V254.401H947.919V247.443H950.675H951.315V254.401H955.854V247.443H959.25V254.401H963.789V247.009H959.821V240.051Z" fill="#050505"/>
<path opacity="0.82" d="M971.724 247.009H967.185V254.401H971.724V247.009Z" fill="#050505"/>
<path opacity="0.82" d="M979.659 247.009H975.12V254.401H979.659V247.009Z" fill="#050505"/>
<path opacity="0.82" d="M884.636 247.009H880.096V254.401H884.636V247.009Z" fill="#050505"/>
<path opacity="0.82" d="M891.798 247.009H887.258V254.401H891.798V247.009Z" fill="#050505"/>
<path opacity="0.82" d="M898.873 247.009H894.334V254.401H898.873V247.009Z" fill="#050505"/>
</svg>
