<svg width="51" height="50" viewBox="0 0 51 50" fill="none" xmlns="http://www.w3.org/2000/svg">
<path fill-rule="evenodd" clip-rule="evenodd" d="M25.5 47.5001C38.1749 47.5001 48.4501 37.4267 48.4501 25C48.4501 12.5736 38.1752 2.49995 25.5 2.49995C12.8251 2.49995 2.54995 12.5736 2.54995 25C2.54995 37.4264 12.8251 47.5001 25.5 47.5001ZM25.5 50C39.5831 50 51 38.807 51 25C51 11.1928 39.5831 0 25.5 0C11.4166 0 0 11.1928 0 25C0 38.807 11.4166 50 25.5 50Z" fill="white"/>
<path fill-rule="evenodd" clip-rule="evenodd" d="M25.5 47.5C38.1749 47.5 48.4501 37.4267 48.4501 25C48.4501 12.5736 38.1752 2.49995 25.5 2.49995C12.8251 2.49995 2.54995 12.5736 2.54995 25C2.54995 37.4264 12.8251 47.5 25.5 47.5ZM25.5 50C39.5831 50 51 38.807 51 25C51 11.1928 39.5831 0 25.5 0C11.4166 0 0 11.1928 0 25C0 38.807 11.4166 50 25.5 50Z" fill="white"/>
<path fill-rule="evenodd" clip-rule="evenodd" d="M32.1262 24.9999L20.3998 17.3357V32.6644L32.1262 24.9999ZM34.4953 23.5439C35.5553 24.2367 35.5553 25.7634 34.4953 26.4562L20.6248 35.5221C19.4386 36.2974 17.8496 35.4635 17.8496 34.0658V15.9343C17.8496 14.5366 19.4386 13.7029 20.6248 14.4783L34.4953 23.5439Z" fill="white"/>
</svg>
