<svg width="170" height="49" viewBox="0 0 170 49" fill="none" xmlns="http://www.w3.org/2000/svg">
<g clip-path="url(#clip0_105_230)">
<path d="M9.58822 23.389H11.3905C12.8402 23.389 14.136 22.4907 14.6425 21.1307V21.1167L18.7649 10.0574V3.97652C18.7649 1.86652 17.0522 0.1539 14.942 0.1539H0.148438V0.274231C1.79123 0.702387 3.00864 2.19393 3.00864 3.97092V45.0207C3.00864 46.7976 1.79683 48.292 0.148438 48.7173V48.8377H14.942C17.0522 48.8377 18.7649 47.1251 18.7649 45.0151V38.9509L14.6286 27.8665C14.1332 26.5092 12.8402 25.6054 11.3905 25.6054H9.58822C9.28317 25.6054 9.0033 25.4794 8.8018 25.2807C8.6003 25.0821 8.47716 24.8022 8.47716 24.4944C8.47716 23.8787 8.97812 23.3834 9.58822 23.3834V23.389Z" fill="white"/>
<path d="M14.9447 49.0004H0.151126C0.0699658 49.0004 0 48.936 0 48.8493V48.729C0 48.659 0.0447781 48.6002 0.111945 48.5834C1.72955 48.1637 2.8574 46.7029 2.8574 45.0295V3.97413C2.8574 2.30069 1.72675 0.842725 0.111945 0.420166C0.0447781 0.403376 0 0.344609 0 0.277448V0.157116C0 0.0731644 0.0643685 0.00320435 0.151126 0.00320435H14.9447C17.1332 0.00320435 18.9187 1.78579 18.9187 3.97413V10.0551C18.9187 10.0719 18.9159 10.0914 18.9075 10.1082L14.788 21.1675C14.259 22.5919 12.8989 23.535 11.3932 23.535H9.59091C9.06196 23.535 8.62818 23.9659 8.62818 24.4976C8.62818 24.7551 8.72613 24.9985 8.91084 25.1776C9.09275 25.3623 9.33063 25.4603 9.59091 25.4603H11.3932C12.8989 25.4603 14.2534 26.4089 14.7684 27.8193L18.9075 38.9066C18.9131 38.9234 18.9187 38.9402 18.9187 38.9597V45.0239C18.9159 47.215 17.1332 48.9976 14.9447 48.9976V49.0004ZM0.702456 48.7038H14.9419C16.9681 48.7038 18.6165 47.0583 18.6165 45.0323V38.9933L14.4885 27.934C14.0155 26.6384 12.7701 25.7709 11.3932 25.7709H9.59091C9.25227 25.7709 8.93603 25.6394 8.70094 25.3987C8.46306 25.1608 8.33152 24.8474 8.33152 24.5088C8.33152 23.812 8.89684 23.2467 9.5937 23.2467H11.396C12.7757 23.2467 14.0267 22.3792 14.5053 21.0864L18.6221 10.0355V3.97413C18.6221 1.94809 16.9765 0.302633 14.9475 0.302633H0.702456C2.17174 0.907088 3.15685 2.35106 3.15685 3.97413V45.0239C3.15685 46.6497 2.17174 48.0937 0.702456 48.6982V48.7038Z" fill="#3D3D3B"/>
<path d="M25.2886 0.1539C23.5815 0.1539 22.0618 1.2117 21.4629 2.81238L18.765 10.0574L14.6454 21.1167V21.1307C14.1361 22.4879 12.8403 23.389 11.3906 23.389H28.2776C29.814 23.389 31.1965 22.432 31.7311 20.9908L38.6633 2.41501C39.0243 1.41878 39.7995 0.682798 40.7483 0.349788V0.1539H25.2886Z" fill="url(#paint0_linear_105_230)"/>
<path d="M28.2775 23.5373H11.3933C11.3122 23.5373 11.2422 23.473 11.2422 23.3862C11.2422 23.2995 11.3066 23.2351 11.3933 23.2351C12.773 23.2351 14.024 22.3676 14.5026 21.0748L21.3257 2.75363C21.9414 1.10817 23.531 0 25.2913 0H40.7509C40.8321 0 40.9021 0.0643632 40.9021 0.151114V0.347002C40.9021 0.408567 40.8629 0.467333 40.8041 0.48972C39.875 0.814335 39.1501 1.53632 38.8115 2.46539L31.8793 21.0412C31.3196 22.5355 29.8783 23.5401 28.2803 23.5401L28.2775 23.5373ZM12.8262 23.2379H28.2803C29.7495 23.2379 31.0845 22.3144 31.5938 20.9376L38.526 2.36185C38.8647 1.43278 39.5615 0.691205 40.4627 0.302227H25.2913C23.6569 0.302227 22.1792 1.33204 21.6055 2.86276L14.7881 21.1699C14.4326 22.1158 13.7134 22.8517 12.8262 23.2379Z" fill="#3D3D3B"/>
<path d="M38.6519 46.5934L31.8316 28.2723C31.2355 26.6744 29.6878 25.6138 28.0059 25.6138H11.396C12.8429 25.6138 14.1387 26.5177 14.634 27.8749L18.7732 38.9621L21.5662 46.4507C22.1008 47.8946 23.4805 48.8489 25.0197 48.8489H40.7536V48.6474C39.7993 48.3144 39.0185 47.5756 38.6519 46.5934Z" fill="url(#paint1_linear_105_230)"/>
<path d="M40.748 49H25.0141C23.4189 49 21.9748 47.9982 21.4179 46.5038L14.4857 27.928C14.0127 26.6324 12.7673 25.7649 11.3904 25.7649C11.3092 25.7649 11.2393 25.7005 11.2393 25.6138C11.2393 25.527 11.3036 25.4626 11.3904 25.4626H28.0003C29.7578 25.4626 31.353 26.5708 31.9687 28.2163L38.789 46.5374C39.1332 47.4609 39.8636 48.1773 40.7928 48.5075C40.8516 48.5271 40.8907 48.5858 40.8907 48.6502V48.8517C40.8963 48.9328 40.8292 49 40.7452 49H40.748ZM12.8233 25.7621C13.7076 26.1455 14.4241 26.8842 14.7683 27.8217L21.7005 46.3975C22.2127 47.7743 23.5448 48.6978 25.0141 48.6978H40.4654C39.5614 48.306 38.8589 47.57 38.5119 46.6437L31.6917 28.3226C31.1235 26.7919 29.6403 25.7621 28.0059 25.7621H12.8233Z" fill="#3D3D3B"/>
<path d="M56.3786 8.32803V15.5031H54.7275V9.68246H51.4866V15.5059H49.8354V8.32803H56.3758H56.3786Z" fill="#1E1E1C"/>
<path d="M64.6656 10.9333C64.6656 12.534 63.4649 13.5274 61.5479 13.5274H60.101V15.5059H58.4414V8.33081H61.5479C63.4649 8.33081 64.6656 9.32704 64.6656 10.9333ZM62.9836 10.9333C62.9836 10.1442 62.4714 9.67964 61.4555 9.67964H60.101V12.1702H61.4555C62.4714 12.173 62.9836 11.7113 62.9836 10.9305V10.9333Z" fill="#1E1E1C"/>
<path d="M71.6647 14.1739V15.5059H66.1094V8.33081H71.5331V9.66285H67.7606V11.2216H71.0937V12.5144H67.7606V14.1739H71.6647Z" fill="#1E1E1C"/>
<path d="M78.9243 13.4967C78.9243 14.8511 77.4494 15.6291 75.7254 15.6291C74.7711 15.6291 73.7552 15.3912 72.8652 14.8791L73.3774 13.6898C74.0351 14.0899 74.8327 14.2746 75.5295 14.2746C76.4727 14.2746 77.2423 13.9248 77.2423 13.2588C77.2423 12.7159 76.7497 12.4501 76.0025 12.4501H74.2506V11.1964H75.8822C76.5594 11.1964 76.9484 10.8998 76.9484 10.4268C76.9484 9.84197 76.3132 9.53695 75.5015 9.53695C74.897 9.53695 74.189 9.70205 73.5761 10.0491L73.0723 8.75619C73.8504 8.35602 74.7123 8.17133 75.5351 8.17133C77.1947 8.17133 78.6304 8.92969 78.6304 10.2309C78.6304 10.9278 78.2302 11.4846 77.5949 11.7589C78.4233 12.0443 78.9243 12.6823 78.9243 13.4911V13.4967Z" fill="#1E1E1C"/>
<path d="M80.5615 8.32803H82.2127V13.0014L85.6382 8.32803H87.1971V15.5031H85.5571V10.8382L82.1316 15.5031H80.5643V8.32803H80.5615Z" fill="#1E1E1C"/>
<path d="M96.7066 14.1543V16.9947H95.1674V15.5087H90.1047V16.9947H88.5654L88.5766 14.1543H88.8621C89.7968 14.1235 90.0319 12.5872 90.1019 10.5779L90.183 8.33362H95.6991V14.1543H96.7039H96.7066ZM90.8547 14.1543H94.0619V9.68525H91.5991L91.5684 10.7318C91.5068 12.2598 91.3417 13.5722 90.8519 14.1571L90.8547 14.1543Z" fill="#1E1E1C"/>
<path d="M103.726 14.1739V15.5059H98.1704V8.33081H103.594V9.66285H99.8216V11.2216H103.155V12.5144H99.8216V14.1739H103.726Z" fill="#1E1E1C"/>
<path d="M112.016 8.32803V15.5031H110.356V12.562H107.096V15.5031H105.436V8.32803H107.096V11.1572H110.356V8.32803H112.016Z" fill="#1E1E1C"/>
<path d="M119.617 9.68246H117.319V15.5059H115.679V9.68246H113.39V8.32803H119.611V9.68246H119.614H119.617Z" fill="#1E1E1C"/>
<path d="M120.417 11.9184C120.417 9.75522 122.077 8.2077 124.313 8.2077C125.552 8.2077 126.588 8.65825 127.265 9.48098L126.199 10.4632C125.715 9.91193 125.11 9.6209 124.394 9.6209C123.051 9.6209 122.096 10.564 122.096 11.9184C122.096 13.2728 123.051 14.2159 124.394 14.2159C125.11 14.2159 125.715 13.9304 126.199 13.3652L127.265 14.3474C126.588 15.1785 125.552 15.6291 124.304 15.6291C122.082 15.6291 120.42 14.0815 120.42 11.9184H120.417Z" fill="#1E1E1C"/>
<path d="M131.449 12.6152H130.302V15.5087H128.65V8.33081H130.302V11.2328H131.491L133.377 8.33081H135.129L132.781 11.7952L135.199 15.5059H133.313L131.446 12.618L131.449 12.6152Z" fill="#1E1E1C"/>
<path d="M136.56 8.32803H138.211V13.0014L141.636 8.32803H143.195V15.5031H141.555V10.8382L138.13 15.5031H136.562V8.32803H136.56Z" fill="#1E1E1C"/>
<path d="M145.252 8.32803H146.903V13.0014L150.329 8.32803H151.887V15.5031H150.248V10.8382L146.822 15.5031H145.255V8.32803H145.252ZM146.573 6.29639H147.709C147.72 6.78891 147.995 7.04636 148.56 7.04636C149.125 7.04636 149.402 6.78891 149.411 6.29639H150.547C150.536 7.30101 149.9 7.86349 148.557 7.86349C147.194 7.86629 146.579 7.30101 146.567 6.29639H146.573Z" fill="#1E1E1C"/>
<path d="M54.5847 27.3488V28.1267H53.0566V27.3376C50.6274 27.192 49.2925 26.0755 49.2925 24.2006C49.2925 22.3256 50.6246 21.2063 53.0566 21.0635V20.3248H54.5847V21.0524C57.0027 21.1979 58.3377 22.3256 58.3377 24.2006C58.3377 26.0755 57.0167 27.2256 54.5847 27.346V27.3488ZM53.0594 26.0475V22.3648C51.6041 22.4991 50.9073 23.0812 50.9073 24.1978C50.9073 25.3143 51.6769 25.9048 53.0594 26.0447V26.0475ZM56.7368 24.195C56.7368 23.0868 56.0092 22.4935 54.5847 22.3704V26.0531C56.0316 25.9188 56.7368 25.3143 56.7368 24.195Z" fill="#1E1E1C"/>
<path d="M59.5688 24.2229C59.5688 22.0906 61.2284 20.5123 63.4981 20.5123C65.7678 20.5123 67.4274 22.0794 67.4274 24.2229C67.4274 26.3665 65.7566 27.9336 63.4981 27.9336C61.2312 27.9336 59.5688 26.3553 59.5688 24.2229ZM65.7426 24.2229C65.7426 22.8601 64.7799 21.9255 63.4981 21.9255C62.2164 21.9255 61.2536 22.8601 61.2536 24.2229C61.2536 25.5858 62.2164 26.5204 63.4981 26.5204C64.7799 26.5204 65.7426 25.5858 65.7426 24.2229Z" fill="#1E1E1C"/>
<path d="M75.5913 20.6354V27.8105H73.9317V24.8694H70.6713V27.8105H69.0117V20.6354H70.6713V23.4646H73.9317V20.6354H75.5913Z" fill="#1E1E1C"/>
<path d="M85.1093 26.4561V29.2965H83.5701V27.8105H78.5046V29.2965H76.9653L76.9765 26.4561H77.262C78.1967 26.4253 78.4318 24.889 78.5018 22.8797L78.5829 20.6354H84.099V26.4561H85.1093ZM79.2546 26.4561H82.4618V21.987H79.999L79.9683 23.0336C79.9095 24.5616 79.7444 25.874 79.2518 26.4589L79.2546 26.4561Z" fill="#1E1E1C"/>
<path d="M92.9344 24.9197H91.7869V27.8133H90.1357V20.6382H91.7869V23.5401H92.9764L94.8626 20.6382H96.6146L94.2665 24.1026L96.6845 27.8133H94.7983L92.9316 24.9197H92.9344Z" fill="#1E1E1C"/>
<path d="M104.895 20.6354L101.842 26.3162C101.246 27.4243 100.395 27.9756 99.4325 27.9756C99.0547 27.9756 98.6629 27.8945 98.2627 27.7294L98.6629 26.4673C98.9288 26.5484 99.1667 26.6016 99.3794 26.6016C99.7908 26.6016 100.107 26.4169 100.384 25.9859L100.446 25.9048L97.6162 20.6354H99.3906L101.296 24.4916L103.267 20.6354H104.893H104.895Z" fill="#1E1E1C"/>
<path d="M112.164 20.6354V27.8105H110.524V21.987H108.061L108.008 23.4814C107.915 26.3021 107.515 27.9196 105.836 27.9196C105.59 27.9196 105.324 27.8804 105.013 27.8077L105.114 26.4029C105.215 26.4337 105.307 26.4421 105.411 26.4421C106.253 26.4421 106.466 25.3759 106.538 23.5401L106.639 20.627H112.161V20.6326L112.164 20.6354Z" fill="#1E1E1C"/>
<path d="M120.425 25.3087C120.425 26.9598 119.317 27.8105 117.473 27.8105H114.232V20.6354H115.883V22.9917H117.708C119.44 22.9917 120.425 23.7612 120.425 25.3087ZM118.752 25.3395C118.752 24.5504 118.24 24.223 117.378 24.223H115.883V26.5792H117.378C118.228 26.5792 118.752 26.1511 118.752 25.3395Z" fill="#1E1E1C"/>
<path d="M126.792 21.987H124.495V27.8105H122.855V21.987H120.565V20.6326H126.787V21.987H126.79H126.792Z" fill="#1E1E1C"/>
<path d="M135.054 20.6354L132 26.3162C131.404 27.4243 130.553 27.9756 129.591 27.9756C129.213 27.9756 128.821 27.8945 128.421 27.7294L128.821 26.4673C129.087 26.5484 129.325 26.6016 129.538 26.6016C129.949 26.6016 130.265 26.4169 130.542 25.9859L130.604 25.9048L127.774 20.6354H129.549L131.455 24.4916L133.425 20.6354H135.051H135.054Z" fill="#1E1E1C"/>
<path d="M142.602 23.2379C142.602 24.8386 141.401 25.832 139.484 25.832H138.037V27.8105H136.377V20.6354H139.484C141.401 20.6354 142.602 21.6288 142.602 23.2379ZM140.92 23.2379C140.92 22.4488 140.407 21.9842 139.392 21.9842H138.037V24.4748H139.392C140.41 24.4748 140.92 24.0159 140.92 23.2351V23.2379Z" fill="#1E1E1C"/>
<path d="M150.625 20.6354V27.8105H148.966V24.8694H145.705V27.8105H144.046V20.6354H145.705V23.4646H148.966V20.6354H150.625Z" fill="#1E1E1C"/>
<path d="M158.887 25.3087C158.887 26.9598 157.778 27.8105 155.934 27.8105H152.693V20.6354H154.345V22.9917H156.169C157.902 22.9917 158.887 23.7612 158.887 25.3087ZM157.216 25.3395C157.216 24.5504 156.704 24.223 155.842 24.223H154.347V26.5792H155.842C156.69 26.5792 157.216 26.1511 157.216 25.3395ZM159.796 20.6354H161.447V27.8105H159.796V20.6354Z" fill="#1E1E1C"/>
<path d="M164.884 20.6354L166.37 22.807L167.857 20.6354H169.807L167.417 24.069L170 27.8105H168.041L166.37 25.4319L164.719 27.8105H162.802L165.366 24.139L162.967 20.6326H164.884V20.6354Z" fill="#1E1E1C"/>
<path d="M49.8384 32.94H51.4896V37.6133L54.9151 32.94H56.4739V40.1151H54.8339V35.4501L51.4084 40.1151H49.8412V32.94H49.8384Z" fill="#1E1E1C"/>
<path d="M65.1157 32.94V40.1151H63.4561V37.174H60.1957V40.1151H58.5361V32.94H60.1957V35.7692H63.4561V32.94H65.1157Z" fill="#1E1E1C"/>
<path d="M67.1812 32.94H68.8323V37.6133L72.2579 32.94H73.8167V40.1151H72.1767V35.4501L68.7512 40.1151H67.1839V32.94H67.1812Z" fill="#1E1E1C"/>
<path d="M83.4048 38.7634V41.6318H81.8767V40.1123H75.8765V32.9372H77.5277V38.7606H80.7265V32.9372H82.3777V38.7606H83.4076L83.4048 38.7634Z" fill="#1E1E1C"/>
<path d="M84.8545 32.94H86.5057V37.6133L89.9312 32.94H91.49V40.1151H89.85V35.4501L86.4245 40.1151H84.8573V32.94H84.8545Z" fill="#1E1E1C"/>
<path d="M98.4952 38.576H95.1621L94.5268 40.1151H92.8252L96.024 32.94H97.664L100.871 40.1151H99.1277L98.4924 38.576H98.4952ZM97.9719 37.3167L96.8356 34.5686L95.6994 37.3167H97.9747H97.9719Z" fill="#1E1E1C"/>
<path d="M106.886 34.2916H104.588V40.1123H102.948V34.2916H100.659V32.9372H106.88V34.2916H106.883H106.886Z" fill="#1E1E1C"/>
<path d="M108.251 32.94H109.902V37.6133L113.328 32.94H114.887V40.1151H113.247V35.4501L109.821 40.1151H108.254V32.94H108.251Z" fill="#1E1E1C"/>
<path d="M123.274 38.0946C123.274 39.3427 122.3 40.1123 120.487 40.1123H116.949V32.9372H120.294C121.953 32.9372 122.941 33.6032 122.941 34.7953C122.941 35.5229 122.563 36.0686 121.925 36.3736C122.793 36.6311 123.277 37.2243 123.277 38.0946H123.274ZM118.598 35.9119H120.145C120.862 35.9119 121.242 35.6152 121.242 35.0416C121.242 34.4679 120.864 34.1713 120.145 34.1713H118.598V35.9147V35.9119ZM121.592 37.9603C121.592 37.3558 121.192 37.0704 120.422 37.0704H118.598V38.8838H120.422C121.192 38.8838 121.592 38.5871 121.592 37.9603Z" fill="#1E1E1C"/>
</g>
<defs>
<linearGradient id="paint0_linear_105_230" x1="26.0694" y1="-1.11098" x2="26.0694" y2="23.2687" gradientUnits="userSpaceOnUse">
<stop offset="0.04" stop-color="#3B62AA"/>
<stop offset="0.06" stop-color="#3A7ABB"/>
<stop offset="0.1" stop-color="#3890CB"/>
<stop offset="0.14" stop-color="#36A1D9"/>
<stop offset="0.18" stop-color="#34ACDF"/>
<stop offset="0.23" stop-color="#34AFE1"/>
<stop offset="0.38" stop-color="#3898D1"/>
<stop offset="0.61" stop-color="#397BBD"/>
<stop offset="0.82" stop-color="#3B68AF"/>
<stop offset="0.96" stop-color="#3B62AA"/>
</linearGradient>
<linearGradient id="paint1_linear_105_230" x1="26.072" y1="49.7864" x2="26.072" y2="25.639" gradientUnits="userSpaceOnUse">
<stop offset="0.09" stop-color="#E94C4D"/>
<stop offset="0.14" stop-color="#DB4244"/>
<stop offset="0.21" stop-color="#CB3A3A"/>
<stop offset="0.29" stop-color="#C23335"/>
<stop offset="0.4" stop-color="#BF3233"/>
<stop offset="0.63" stop-color="#D6373C"/>
<stop offset="0.84" stop-color="#E83C43"/>
<stop offset="0.88" stop-color="#E43B41"/>
<stop offset="0.92" stop-color="#D6383E"/>
<stop offset="0.97" stop-color="#C03436"/>
<stop offset="1" stop-color="#A93030"/>
</linearGradient>
<clipPath id="clip0_105_230">
<rect width="170" height="49" fill="white"/>
</clipPath>
</defs>
</svg>
